<svg xmlns="http://www.w3.org/2000/svg" viewBox="0 0 114.41 132.89"><defs><style>.cls-1{fill:#fff;}</style></defs><title>Constellation</title><g id="Layer_2" data-name="Layer 2"><g id="Layer_1-2" data-name="Layer 1"><polygon class="cls-1" points="72.27 30.42 87.91 20.45 68.44 18.26 88 18.46 73.38 6.64 89.4 16.94 85.22 0 91.57 16.46 99.42 0.87 93.69 17.2 110.57 8.92 94.94 18.89 114.41 21.07 94.85 20.87 109.46 32.69 93.45 22.4 97.63 39.34 91.27 22.88 83.42 38.47 89.16 22.14 72.27 30.42"/><polygon class="cls-1" points="69.59 35.42 70.66 43.99 80.51 42.22 71.32 45.73 76.34 53.2 69.59 46.81 62.84 53.2 67.86 45.73 58.67 42.22 68.52 43.99 69.59 35.42"/><polygon class="cls-1" points="10.92 43.17 11.99 51.74 21.84 49.96 12.65 53.48 17.67 60.95 10.92 54.56 4.17 60.95 9.19 53.48 0 49.96 9.85 51.74 10.92 43.17"/><polygon class="cls-1" points="10.92 115.11 11.99 123.67 21.84 121.9 12.65 125.42 17.67 132.89 10.92 126.5 4.17 132.89 9.19 125.42 0 121.9 9.85 123.67 10.92 115.11"/><polygon class="cls-1" points="69.59 101.11 70.66 109.68 80.51 107.91 71.32 111.43 76.34 118.9 69.59 112.5 62.84 118.9 67.86 111.43 58.67 107.91 68.52 109.68 69.59 101.11"/><path class="cls-1" d="M63.19,46.46l-1.91.42c-1.22.25-2.95.64-5,1s-4.52.91-7.14,1.37l-8.2,1.47-8.22,1.34c-2.62.43-5.08.76-7.19,1.07s-3.87.51-5.1.68l-1.94.23,1.91-.42c1.22-.25,2.95-.64,5-1s4.52-.91,7.14-1.37l8.2-1.47L49,48.45c2.62-.43,5.08-.76,7.19-1.07s3.87-.52,5.1-.68Z"/><path class="cls-1" d="M10.92,59l.1,2.22c0,1.41.14,3.43.18,5.85s.13,5.24.15,8.27l.07,9.48-.07,9.48c0,3-.11,5.85-.15,8.27s-.14,4.44-.18,5.85l-.1,2.22-.1-2.22c0-1.41-.14-3.43-.18-5.85s-.14-5.24-.15-8.27l-.07-9.48.07-9.48c0-3,.11-5.85.15-8.27s.14-4.44.18-5.85Z"/><path class="cls-1" d="M69.59,98.37l-.1-2.07c0-1.32-.14-3.19-.18-5.45s-.13-4.88-.15-7.7l-.07-8.83.07-8.83c0-2.82.11-5.45.15-7.7s.14-4.13.18-5.45l.1-2.07.1,2.07c0,1.32.14,3.19.18,5.45s.14,4.88.15,7.7l.07,8.83L70,83.15c0,2.82-.11,5.45-.15,7.7s-.14,4.13-.18,5.45Z"/><path class="cls-1" d="M25.33,121.11l1.57-.46c1-.27,2.42-.69,4.14-1.13s3.72-1,5.88-1.5,4.46-1.07,6.77-1.6,4.62-1,6.79-1.49,4.21-.84,6-1.19,3.21-.58,4.23-.77l1.61-.27-1.57.46c-1,.27-2.42.69-4.14,1.13s-3.72,1-5.88,1.5-4.46,1.07-6.77,1.6-4.62,1-6.79,1.48-4.21.84-6,1.19-3.21.58-4.23.77Z"/></g></g></svg>