<svg xmlns="http://www.w3.org/2000/svg" viewBox="0 0 118.43 132.89"><defs><style>.cls-1,.cls-6{fill:#fff;}.cls-2,.cls-3,.cls-4{isolation:isolate;}.cls-3,.cls-4{font-size:42.25px;font-family:Skia-Regular, Skia;}.cls-3,.cls-5{fill:#fbb03b;}.cls-4{fill:none;stroke:#010101;}.cls-4,.cls-5,.cls-6{stroke-miterlimit:10;}.cls-5,.cls-6{stroke:#020202;}</style></defs><title>constelattionLogo</title><g id="Layer_2" data-name="Layer 2"><g id="Layer_1-2" data-name="Layer 1"><polygon class="cls-1" points="76.3 30.42 91.93 20.45 72.46 18.26 92.02 18.46 77.41 6.64 93.42 16.94 89.24 0 95.59 16.46 103.44 0.87 97.71 17.2 114.59 8.92 98.96 18.89 118.43 21.07 98.87 20.87 113.49 32.69 97.47 22.4 101.65 39.34 95.3 22.88 87.45 38.47 93.18 22.14 76.3 30.42"/><polygon class="cls-1" points="73.61 35.42 74.69 43.99 84.53 42.22 75.35 45.73 80.36 53.2 73.61 46.81 66.86 53.2 71.88 45.73 62.7 42.22 72.54 43.99 73.61 35.42"/><polygon class="cls-1" points="14.94 43.17 16.01 51.74 25.86 49.96 16.68 53.48 21.69 60.95 14.94 54.56 8.19 60.95 13.21 53.48 4.02 49.96 13.87 51.74 14.94 43.17"/><polygon class="cls-1" points="14.94 115.11 16.01 123.67 25.86 121.9 16.68 125.42 21.69 132.89 14.94 126.5 8.19 132.89 13.21 125.42 4.02 121.9 13.87 123.67 14.94 115.11"/><polygon class="cls-1" points="73.61 101.11 74.69 109.68 84.53 107.91 75.35 111.43 80.36 118.9 73.61 112.5 66.86 118.9 71.88 111.43 62.7 107.91 72.54 109.68 73.61 101.11"/><path class="cls-1" d="M67.21,46.46l-1.91.42c-1.22.25-2.95.64-5,1s-4.52.91-7.14,1.37l-8.2,1.47-8.22,1.34c-2.62.43-5.08.76-7.19,1.07s-3.87.51-5.1.68l-1.94.23,1.91-.42c1.22-.25,2.95-.64,5-1s4.52-.91,7.14-1.37l8.2-1.47L53,48.45c2.62-.43,5.08-.76,7.19-1.07s3.87-.52,5.1-.68Z"/><path class="cls-1" d="M14.94,59l.1,2.22c0,1.41.14,3.43.18,5.85s.13,5.24.15,8.27l.07,9.48-.07,9.48c0,3-.11,5.85-.15,8.27s-.14,4.44-.18,5.85l-.1,2.22-.1-2.22c0-1.41-.14-3.43-.18-5.85s-.14-5.24-.15-8.27l-.07-9.48.07-9.48c0-3,.11-5.85.15-8.27s.14-4.44.18-5.85Z"/><path class="cls-1" d="M73.61,98.37l-.1-2.07c0-1.32-.14-3.19-.18-5.45s-.13-4.88-.15-7.7l-.07-8.83.07-8.83c0-2.82.11-5.45.15-7.7s.14-4.13.18-5.45l.1-2.07.1,2.07c0,1.32.14,3.19.18,5.45s.14,4.88.15,7.7l.07,8.83L74,83.15c0,2.82-.11,5.45-.15,7.7s-.14,4.13-.18,5.45Z"/><path class="cls-1" d="M29.35,121.11l1.57-.46c1-.27,2.42-.69,4.14-1.13s3.72-1,5.88-1.5,4.46-1.07,6.77-1.6,4.62-1,6.79-1.49,4.21-.84,6-1.19,3.21-.58,4.23-.77l1.61-.27-1.57.46c-1,.27-2.42.69-4.14,1.13s-3.72,1-5.88,1.5-4.46,1.07-6.77,1.6-4.62,1-6.79,1.48-4.21.84-6,1.19-3.21.58-4.23.77Z"/><g class="cls-2"><text class="cls-3" transform="translate(0.5 98.11) scale(1.15 1)"><tspan xml:space="preserve">L  RA</tspan></text><text class="cls-4" transform="translate(0.5 98.11) scale(1.15 1)"><tspan xml:space="preserve">L  RA</tspan></text></g><polygon class="cls-5" points="23.84 72.52 20.52 68.44 20.52 84.78 23.84 88.86 23.84 72.52"/><rect class="cls-5" x="23.84" y="73.54" width="26.55" height="1.7"/><rect class="cls-6" x="30.46" y="75.24" width="3.32" height="13.62"/><rect class="cls-6" x="33.78" y="75.24" width="3.32" height="13.62"/><rect class="cls-6" x="37.1" y="75.24" width="3.32" height="13.62"/><rect class="cls-6" x="40.42" y="75.24" width="3.32" height="13.62"/><polygon class="cls-5" points="50.37 72.52 53.69 68.44 53.69 84.78 50.37 88.86 50.37 72.52"/><polyline class="cls-6" points="40.42 99.08 40.42 93.98 47.05 99.08 27.14 99.08 33.78 93.98 33.78 99.08"/><path class="cls-5" d="M40.42,88.86h-10l-6.63-5.15v3.4l9.95,6.81v5.16h6.64V94l9.95-6.81V83.71l-6.64,5.11Z"/></g></g></svg>