<svg xmlns="http://www.w3.org/2000/svg" viewBox="0 0 960 560.03"><defs><style>.cls-1{fill:#333;}.cls-2{fill:#1a1a1a;}.cls-3{fill:#fff;}.cls-4{fill:none;stroke:#fff;stroke-miterlimit:10;}</style></defs><title>custom-background</title><g id="Layer_2" data-name="Layer 2"><g id="Layer_1-2" data-name="Layer 1"><rect width="960" height="560"/><polygon class="cls-1" points="0 452.77 16.18 452.77 24.27 450.55 45.3 448.76 59.05 446.09 76.03 443.87 91.4 442.08 101.11 442.08 118.9 442.08 131.84 439.86 143.16 439.86 160.96 439.86 173.9 439.86 193.31 439.86 211.11 437.63 220 437.63 231.33 437.63 242.65 437.63 255.59 437.63 266.11 439.41 274.2 437.63 281.48 437.63 294.42 437.63 308.98 437.63 316.26 434.52 324.35 434.52 331.63 434.52 342.95 434.52 357.51 434.52 368.02 434.52 380.15 436.3 392.29 437.19 401.19 438.08 414.94 437.63 427.88 436.3 445.67 434.52 461.04 431.84 476.41 429.62 491.77 432.29 499.86 434.07 507.95 436.3 518.47 436.3 526.55 436.3 537.07 434.96 545.16 433.18 552.44 433.63 562.95 435.41 570.23 434.96 580.75 437.19 596.12 436.3 605.82 436.3 613.1 436.3 621.19 435.41 630.09 437.19 640.6 438.08 648.69 437.63 656.78 439.41 664.87 441.19 675.38 442.98 683.37 443.09 686.7 445.2 689.63 446.48 692.87 446.87 695.9 446.81 698.12 446.93 699.74 447.09 701.76 448.43 703.18 449.43 704.79 448.99 706.72 448.26 708.23 447.59 711.16 447.26 713.35 447.68 717.01 448.1 719.71 449.16 721.83 450.43 722.79 447.89 724.14 446.93 727.03 446.51 729.53 447.04 731.07 447.99 733.38 448.63 735.12 449.58 736.46 450.64 738.2 451.28 740.12 451.6 742.43 452.02 745.13 452.77 747.83 453.3 749 454.19 756.26 454.19 757.93 453.26 760.17 452.75 763.52 452.44 767.62 452.34 770.03 452.75 772.08 453.57 773.76 454.6 776.37 455.62 777.85 456.54 779.53 456.54 782.51 457.57 785.3 457.57 789.75 457.92 791.1 457.92 792 458.26 793.52 458.8 795.41 459.3 796.31 459.89 797.83 460.24 798.82 460.63 799.99 461.08 802.53 461.81 805.43 461.81 809.89 461.81 813.24 461.81 818.14 461.81 821.27 462.67 824.84 463.29 827.51 463.29 830.41 463.29 836.43 464.76 839.56 464.76 844.46 465.62 848.26 465.62 851.38 467.1 854.95 467.1 861.41 467.1 869.67 467.1 876.04 467.1 880.59 467.86 883.03 469.11 886.28 469.83 888.23 470.28 890.35 471.08 891.49 471.98 893.93 471.98 898.81 471.98 903.73 471.98 908.36 471.98 910.97 473.43 914.45 474.71 919.66 476.14 924.58 476.14 932.98 476.14 943.41 476.14 947.75 476.14 950.36 475.03 954.41 476.14 960 476.14 960 553.15 0 553.15 0 452.77"/><polyline class="cls-2" points="0.09 553.37 0 560 960 560"/><polygon class="cls-2" points="900.6 493.71 889.62 492.04 886.96 492.04 881.37 490.16 877.38 489.18 873.13 488.45 867.01 486.73 863.55 486.26 859.03 484.7 854.5 484.23 851.31 483.76 847.86 483.76 841.47 482.36 838.01 481.42 833.76 480.96 829.23 479.55 825.51 479.39 820.19 477.21 816.2 476.12 813.54 474.4 808.49 472.53 804.5 471.9 800.5 470.19 794.39 469.88 792.26 467.53 785.87 466.44 780.82 465.04 770.45 462.23 767.78 460.36 762.73 459.11 752.89 456.61 746.5 454.58 738.52 452.55 733.47 452.55 727.09 452.4 715.91 452.4 704.74 451.46 700.75 451.15 696.76 450.99 691.42 452.41 684.15 448.47 677.44 448.47 674.09 451.42 668.5 453.06 663.46 453.72 658.43 452.41 652.84 451.75 637.19 451.75 628.8 452.73 622.09 453.06 613.15 451.75 605.32 450.11 598.61 448.47 593.58 450.44 588.92 451.03 584.26 452.1 580.21 453.29 574.34 454.24 565.62 452.1 560.36 452.1 555.09 453.29 552.82 455.69 541.27 455.69 521.46 459.23 506.6 460.85 496.15 464.73 486.79 467.31 474.69 469.25 462.58 470.86 449.93 472.47 437.27 474.21 427.92 474.21 421.86 472.8 418.25 471.44 413.87 469.32 409.23 467.2 403.05 465.84 397.63 464.93 391.7 463.57 382.42 462.66 371.08 462.66 368.27 462.23 363.73 460.06 359.19 459.23 354.09 459.23 347.56 460.4 341.61 461.89 333.95 462.56 330.54 463.56 323.45 461.89 306.71 461.89 298.2 462.56 294.8 464.56 290.83 467.05 287.71 468.72 270.4 468.72 265.89 472.43 258.44 474.98 251.61 478.62 241.68 478.62 229.89 482.63 208.78 489.18 16.66 494.39 0.04 494.85 0.04 553.4 959.96 560.03 959.96 493.71 900.6 493.71"/><polygon class="cls-2" points="33.25 488.07 56.72 493.45 71.33 490.62 88.9 484.09 100.61 489 116 489 127.66 491.41 139.65 484 153 484 164.05 484.14 177.72 489 187 489 208.78 489.23 16.66 494.42 33.25 488.07"/><path d="M832,105.41c-6,0-6,10,0,10S838,105.41,832,105.41Z"/><path class="cls-3" d="M818.21,102.61c7.72,0,7.73-12,0-12s-7.73,12,0,12Z"/><path class="cls-3" d="M717.36,156.76c3.86,0,3.87-6,0-6s-3.87,6,0,6Z"/><path class="cls-3" d="M781.66,134.06c3.86,0,3.87-6,0-6s-3.87,6,0,6Z"/><path class="cls-3" d="M717.26,248.81c3.86,0,3.87-6,0-6s-3.87,6,0,6Z"/><path class="cls-3" d="M782,226.56c3.86,0,3.87-6,0-6s-3.87,6,0,6Z"/><path class="cls-4" d="M818.21,96.61"/></g></g></svg>