<?xml version="1.0" encoding="utf-8"?>
<!-- Generator: Adobe Illustrator 20.1.0, SVG Export Plug-In . SVG Version: 6.00 Build 0)  -->
<svg version="1.1" id="Layer_1" xmlns="http://www.w3.org/2000/svg" xmlns:xlink="http://www.w3.org/1999/xlink" x="0px" y="0px"
	 viewBox="0 0 960 560" style="enable-background:new 0 0 960 560;" xml:space="preserve">
<style type="text/css">
	.st0{fill:#333333;}
	.st1{fill:#1A1A1A;}
	.st2{fill:#FFFFFF;stroke:#FFFFFF;stroke-miterlimit:10;}
	.st3{fill:#FFFFFF;}
	.st4{fill:none;stroke:#FFFFFF;stroke-miterlimit:10;}
	.st5{fill:none;stroke:#FFFFFF;stroke-width:0.25;stroke-miterlimit:10;}
</style>
<title>custom-background</title>
<rect width="960" height="560"/>
<polygon class="st0" points="0,450.4 16.2,450.4 24.3,448.2 45.3,446.3 59,443.6 76,441.4 91.4,439.5 101.1,439.5 118.9,439.5 
	131.8,437.3 143.2,437.3 161,437.3 173.9,437.3 193.3,437.3 211.1,435 220,435 231.3,435 242.6,435 255.6,435 266.1,436.8 
	274.2,435 281.5,435 294.4,435 309,435 316.3,431.8 324.4,431.8 331.6,431.8 343,431.8 357.5,431.8 368,431.8 380.1,433.6 
	392.3,434.5 401.2,435.4 414.9,435 427.9,433.6 445.7,431.8 461,429.1 476.4,426.8 491.8,429.5 499.9,431.3 508,433.6 518.5,433.6 
	526.5,433.6 537.1,432.2 545.2,430.4 552.4,430.9 563,432.7 570.2,432.2 580.8,434.5 596.1,433.6 605.8,433.6 613.1,433.6 
	621.2,432.7 630.1,434.5 640.6,435.4 648.7,435 656.8,436.8 664.9,438.6 675.4,440.4 683.4,440.6 686.7,442.7 689.6,444 
	692.9,444.4 695.9,444.4 698.1,444.5 699.7,444.6 701.8,446 703.2,447 704.8,446.6 706.7,445.8 708.2,445.2 711.2,444.8 
	713.3,445.2 717,445.7 719.7,446.8 721.8,448.1 722.8,445.5 724.1,444.5 727,444 729.5,444.6 731.1,445.6 733.4,446.2 735.1,447.2 
	736.5,448.3 738.2,448.9 740.1,449.2 742.4,449.7 745.1,450.4 747.8,451 749,451.9 756.3,451.9 757.9,450.9 760.2,450.4 
	763.5,450.1 767.6,450 770,450.4 772.1,451.3 773.8,452.3 776.4,453.4 777.8,454.3 779.5,454.3 782.5,455.3 785.3,455.3 
	789.8,455.7 791.1,455.7 792,456.1 793.5,456.6 795.4,457.1 796.3,457.7 797.8,458.1 798.8,458.5 800,458.9 802.5,459.7 
	805.4,459.7 809.9,459.7 813.2,459.7 818.1,459.7 821.3,460.6 824.8,461.2 827.5,461.2 830.4,461.2 836.4,462.7 839.6,462.7 
	844.5,463.6 848.3,463.6 851.4,465.1 855,465.1 861.4,465.1 869.7,465.1 876,465.1 880.6,465.9 883,467.1 886.3,467.9 888.2,468.3 
	890.3,469.2 891.5,470.1 893.9,470.1 898.8,470.1 903.7,470.1 908.4,470.1 911,471.6 914.5,472.9 919.7,474.3 924.6,474.3 
	933,474.3 943.4,474.3 947.8,474.3 950.4,473.2 954.4,474.3 960,474.3 960,553 0,553 "/>
<polyline class="st1" points="0.1,551.2 0,560 960,560 "/>
<g>
	<polygon class="st1" points="900.6,492.3 889.6,490.6 887,490.6 881.4,488.6 877.4,487.6 873.1,486.9 867,485.1 863.5,484.7 
		859,483.1 854.5,482.6 851.3,482.1 847.9,482.1 841.5,480.7 838,479.7 833.8,479.2 829.2,477.8 825.5,477.6 820.2,475.4 
		816.2,474.3 813.5,472.5 808.5,470.6 804.5,470 800.5,468.2 794.4,467.9 792.3,465.5 785.9,464.4 780.8,463 770.5,460.1 
		767.8,458.2 762.7,456.9 752.9,454.4 746.5,452.3 738.5,450.2 733.5,450.2 727.1,450.1 715.9,450.1 704.7,449.1 700.8,448.8 
		696.8,448.6 691.4,450.1 684.2,446.1 677.4,446.1 674.1,449.1 668.5,450.7 663.5,451.4 658.4,450.1 652.8,449.4 637.2,449.4 
		628.8,450.4 622.1,450.7 613.2,449.4 605.3,447.7 598.6,446.1 593.6,448.1 588.9,448.7 584.3,449.8 580.2,451 574.3,451.9 
		565.6,449.8 560.4,449.8 555.1,451 552.8,453.4 541.3,453.4 521.5,457 506.6,458.7 496.1,462.7 486.8,465.3 474.7,467.3 
		462.6,468.9 449.9,470.6 437.3,472.3 427.9,472.3 421.9,470.9 418.2,469.5 413.9,467.4 409.2,465.2 403,463.8 397.6,462.9 
		391.7,461.5 382.4,460.5 371.1,460.5 368.3,460.1 363.7,457.9 359.2,457 354.1,457 347.6,458.2 341.6,459.8 334,460.4 330.5,461.5 
		323.5,459.8 306.7,459.8 298.2,460.4 294.8,462.5 290.8,465 287.7,466.7 270.4,466.7 265.9,470.5 258.4,473.1 251.6,476.9 
		241.7,476.9 229.9,481 208.8,487.6 16.7,493 0,493.4 0,553.3 960,560 960,492.3 	"/>
	<polygon class="st1" points="33.2,486.5 56.7,492 71.3,489.1 88.9,482.4 100.6,487.5 116,487.5 127.7,489.9 139.6,482.4 153,482.4 
		164.1,482.5 177.7,487.5 187,487.5 208.8,487.7 16.7,493 	"/>
</g>
<path d="M832,105.4c-6,0-6,10,0,10S838,105.4,832,105.4z"/>
<path class="st2" d="M868.2,146.6c7.1,3.1,11.9-7.9,4.8-11C865.9,132.5,861.1,143.5,868.2,146.6z"/>
<path class="st3" d="M754,155.5c3.5,1.6,6-3.9,2.4-5.5C752.9,148.5,750.5,154,754,155.5z"/>
<path class="st3" d="M822,160.6c3.5,1.6,6-3.9,2.4-5.5C820.9,153.6,818.5,159.1,822,160.6z"/>
<path class="st3" d="M716.9,239.7c3.5,1.6,6-3.9,2.4-5.5C715.7,232.7,713.3,238.2,716.9,239.7z"/>
<path class="st3" d="M785.1,245.5c3.5,1.6,6-3.9,2.4-5.5C784,238.4,781.6,243.9,785.1,245.5z"/>
<path class="st4" d="M818.2,96.6"/>
<line class="st5" x1="871.2" y1="141.2" x2="823.2" y2="157.9"/>
<line class="st5" x1="823.2" y1="157.9" x2="755.2" y2="153.8"/>
<line class="st5" x1="718.2" y1="237" x2="786.3" y2="243.6"/>
<line class="st5" x1="716.9" y1="239.7" x2="755.2" y2="153.8"/>
<line class="st5" x1="786.3" y1="243.6" x2="823.2" y2="157.9"/>
</svg>
