<svg xmlns="http://www.w3.org/2000/svg" viewBox="0 0 960 560.03"><defs><style>.cls-1{fill:#333;}.cls-2{fill:#1a1a1a;}.cls-3{fill:#fff;}.cls-4{fill:none;stroke:#fff;stroke-miterlimit:10;}</style></defs><title>custom-background3</title><g id="Layer_2" data-name="Layer 2"><g id="Layer_1-2" data-name="Layer 1"><rect width="960" height="560"/><polygon class="cls-1" points="0 417.74 16.18 417.74 24.27 414.8 45.3 412.42 59.05 408.88 76.03 405.93 91.4 403.56 101.11 403.56 118.9 403.56 131.84 400.61 143.16 400.61 160.96 400.61 173.9 400.61 193.31 400.61 211.11 397.66 220 397.66 231.33 397.66 242.65 397.66 255.59 397.66 266.11 400.02 274.2 397.66 281.48 397.66 294.42 397.66 308.98 397.66 316.26 393.53 324.35 393.53 331.63 393.53 342.95 393.53 357.51 393.53 368.02 393.53 380.15 395.89 392.29 397.07 401.19 398.25 414.94 397.66 427.88 395.89 445.67 393.53 461.04 389.98 476.41 387.03 491.77 390.57 499.86 392.93 507.95 395.89 518.47 395.89 526.55 395.89 537.07 394.11 545.16 391.75 552.44 392.35 562.95 394.71 570.23 394.11 580.75 397.07 596.12 395.89 605.82 395.89 613.1 395.89 621.19 394.71 630.09 397.07 640.6 398.25 648.69 397.66 656.78 400.02 664.87 402.38 675.38 404.75 683.37 404.9 686.7 407.7 689.63 409.4 692.87 409.91 695.9 409.83 698.12 409.99 699.74 410.21 701.76 411.98 703.18 413.31 704.79 412.73 706.72 411.76 708.23 410.87 711.16 410.43 713.35 410.99 717.01 411.55 719.71 412.95 721.83 414.64 722.79 411.27 724.14 409.99 727.03 409.44 729.53 410.14 731.07 411.4 733.38 412.25 735.12 413.51 736.46 414.92 738.2 415.76 740.12 416.19 742.43 416.75 745.13 417.74 747.83 418.44 749 419.62 756.26 419.62 757.93 418.39 760.17 417.71 763.52 417.3 767.62 417.17 770.03 417.71 772.08 418.8 773.76 420.17 776.37 421.52 777.85 422.74 779.53 422.74 782.51 424.11 785.3 424.11 789.75 424.57 791.1 424.57 792 425.02 793.52 425.74 795.41 426.4 796.31 427.19 797.83 427.65 798.82 428.17 799.99 428.76 802.53 429.73 805.43 429.73 809.89 429.73 813.24 429.73 818.14 429.73 821.27 430.87 824.84 431.7 827.51 431.7 830.41 431.7 836.43 433.65 839.56 433.65 844.46 434.79 848.26 434.79 851.38 436.75 854.95 436.75 861.41 436.75 869.67 436.75 876.04 436.75 880.59 437.76 883.03 439.42 886.28 440.37 888.23 440.97 890.35 442.03 891.49 443.22 893.93 443.22 898.81 443.22 903.73 443.22 908.36 443.22 910.97 445.15 914.45 446.85 919.66 448.74 924.58 448.74 932.98 448.74 943.41 448.74 947.75 448.74 950.36 447.27 954.41 448.74 960 448.74 960 550.9 0 550.9 0 417.74"/><polyline class="cls-2" points="0.09 551.2 0 559.99 960 559.99"/><polygon class="cls-2" points="900.6 472.05 889.62 469.84 886.96 469.84 881.37 467.34 877.38 466.04 873.13 465.07 867.01 462.79 863.55 462.17 859.03 460.1 854.5 459.48 851.31 458.85 847.86 458.85 841.47 456.99 838.01 455.75 833.76 455.14 829.23 453.27 825.51 453.05 820.19 450.16 816.2 448.72 813.54 446.44 808.49 443.95 804.5 443.12 800.5 440.85 794.39 440.44 792.26 437.32 785.87 435.88 780.82 434.02 770.45 430.29 767.78 427.81 762.73 426.15 752.89 422.83 746.5 420.14 738.52 417.45 733.47 417.45 727.09 417.25 715.91 417.25 704.74 416 700.75 415.59 696.76 415.38 691.42 417.26 684.15 412.04 677.44 412.04 674.09 415.95 668.5 418.13 663.46 419 658.43 417.26 652.84 416.39 637.19 416.39 628.8 417.69 622.09 418.13 613.15 416.39 605.32 414.21 598.61 412.04 593.58 414.65 588.92 415.43 584.26 416.85 580.21 418.43 574.34 419.69 565.62 416.85 560.36 416.85 555.09 418.43 552.82 421.61 541.27 421.61 521.46 426.31 506.6 428.46 496.15 433.61 486.79 437.03 474.69 439.6 462.58 441.74 449.93 443.87 437.27 446.18 427.92 446.18 421.86 444.31 418.25 442.51 413.87 439.7 409.23 436.88 403.05 435.08 397.63 433.87 391.7 432.07 382.42 430.86 371.08 430.86 368.27 430.29 363.73 427.41 359.19 426.31 354.09 426.31 347.56 427.86 341.61 429.84 333.95 430.73 330.54 432.05 323.45 429.84 306.71 429.84 298.2 430.73 294.8 433.38 290.83 436.68 287.71 438.9 270.4 438.9 265.89 443.82 258.44 447.2 251.61 452.03 241.68 452.03 229.89 457.35 208.78 466.04 16.66 472.95 0.04 473.56 0.04 551.24 959.96 560.03 959.96 472.05 900.6 472.05"/><polygon class="cls-2" points="33.25 464.57 56.72 471.71 71.33 467.95 88.9 459.29 100.61 465.8 116 465.8 127.66 469 139.65 459.17 153 459.17 164.05 459.36 177.72 465.8 187 465.8 208.78 466.11 16.66 472.99 33.25 464.57"/><path d="M832,105.41c-6,0-6,10,0,10S838,105.41,832,105.41Z"/><path class="cls-3" d="M868.16,146.58c7.07,3.11,11.91-7.87,4.83-11S861.08,143.47,868.16,146.58Z"/><path class="cls-3" d="M754,155.53c3.53,1.55,6-3.93,2.42-5.49S750.5,154,754,155.53Z"/><path class="cls-3" d="M822,160.65c3.53,1.55,6-3.93,2.42-5.49S818.49,159.09,822,160.65Z"/><path class="cls-3" d="M716.87,239.74c3.53,1.55,6-3.93,2.42-5.49S713.33,238.18,716.87,239.74Z"/><path class="cls-3" d="M785.09,245.45c3.53,1.55,6-3.93,2.42-5.49S781.55,243.89,785.09,245.45Z"/><path class="cls-4" d="M818.21,96.61"/></g></g></svg>