<svg xmlns="http://www.w3.org/2000/svg" viewBox="0 0 960 560"><defs><style>.cls-1,.cls-2{fill:none;stroke:#fff;stroke-miterlimit:10;}.cls-2{stroke-width:0.25px;}.cls-3{fill:#fff;}</style></defs><title>customBackground4</title><g id="Layer_2" data-name="Layer 2"><g id="Layer_1-2" data-name="Layer 1"><rect width="960" height="560"/><path class="cls-1" d="M808.38,96.61"/><line class="cls-2" x1="868" y1="161.73" x2="790.74" y2="187.51"/><line class="cls-2" x1="790.74" y1="187.51" x2="681.21" y2="181.14"/><line class="cls-2" x1="621.46" y1="309.5" x2="731.23" y2="319.62"/><line class="cls-2" x1="621.46" y1="309.5" x2="681.21" y2="181.14"/><line class="cls-2" x1="731.23" y1="319.62" x2="790.74" y2="187.51"/><polygon class="cls-3" points="681.22 170.9 682.29 179.47 692.13 177.7 682.95 181.22 687.96 188.69 681.22 182.29 674.47 188.69 679.48 181.22 670.3 177.7 680.14 179.47 681.22 170.9"/><polygon class="cls-3" points="790.75 178.62 791.82 187.19 801.66 185.42 792.48 188.94 797.49 196.41 790.75 190.01 784 196.41 789.01 188.94 779.83 185.42 789.67 187.19 790.75 178.62"/><polygon class="cls-3" points="863.96 131.18 868 161.73 905.16 155.42 870.49 167.97 889.41 194.6 863.96 171.78 838.46 194.6 857.38 167.97 822.71 155.42 859.88 161.73 863.96 131.18"/><polygon class="cls-3" points="731.24 309.5 732.31 318.07 742.15 316.3 732.97 319.82 737.98 327.29 731.24 320.89 724.49 327.29 729.5 319.82 720.32 316.3 730.16 318.07 731.24 309.5"/><polygon class="cls-3" points="623.2 299.18 624.27 307.75 634.11 305.98 624.93 309.5 629.94 316.97 623.2 310.57 616.45 316.97 621.46 309.5 612.28 305.98 622.12 307.75 623.2 299.18"/></g></g></svg>