<svg xmlns="http://www.w3.org/2000/svg" viewBox="0 0 42.74 51.76"><defs><style>.cls-1{fill:#fba034;}</style></defs><title>home-logo</title><g id="Layer_2" data-name="Layer 2"><g id="Layer_1-2" data-name="Layer 1"><path class="cls-1" d="M27.3,10.42c0,2.87-.07,5.74-.14,8.6s-.2,5.72-.31,8.58l-.44,8.57-.55,8.56-.09,1.41-1.52.36c-1.75.41-3.49.82-5.25,1.2l-5.25,1.16Q8.49,50,3.22,51.1L0,51.76l.3-3.32C.82,42.76,1.4,37.07,2,31.39S3.28,20,4,14.36l.21-1.66,1.54-.27c3.53-.62,7.08-1.16,10.63-1.73,1.77-.28,3.54-.58,5.32-.83L27,9.1l-.49.21c2.65-1.62,5.36-3.16,8-4.74S40,1.47,42.74,0c-2.4,2-4.84,3.93-7.28,5.86s-4.91,3.82-7.4,5.68l-.17.12-.33.08L22.33,13c-1.74.45-3.49.84-5.24,1.25-3.5.81-7,1.66-10.49,2.43L8.36,14.8c-.42,5.7-.92,11.39-1.44,17.08S5.81,43.26,5.18,48.94L2.27,46.29q5.29-1,10.59-1.93l5.3-.92c1.77-.31,3.54-.6,5.31-.88l-1.61,1.77L23,35.83l1.28-8.48c.46-2.82.92-5.65,1.41-8.47S26.72,13.23,27.3,10.42Z"/></g></g></svg>