<svg xmlns="http://www.w3.org/2000/svg" viewBox="0 0 297 108"><defs><style>.cls-1{fill:#fff;}.cls-2,.cls-4{fill:none;}.cls-3{fill:#fbb03b;}.cls-4{stroke:#fff;stroke-miterlimit:10;}</style></defs><title>lds-final2</title><g id="Layer_2" data-name="Layer 2"><g id="Layer_1-2" data-name="Layer 1"><rect width="297" height="108"/><path class="cls-1" d="M150.65,54.28a4.24,4.24,0,0,0,1.38.34c4.37.38,9.28,1,14.15,1.85,1.47.25,2.94.52,4.39.81,7.29,1.46,14.1,3.38,18.39,5.65h.19l0,0a12.19,12.19,0,0,1,3,2.22,18.34,18.34,0,0,1,4.11,6.74h0a14.73,14.73,0,0,1,.76,4.7,16.5,16.5,0,0,1-4.79,11.26,26.49,26.49,0,0,1-4.17,3.64c-6.57,4.69-16.23,7.66-27,7.68H89.3l27-18h44.76a37.15,37.15,0,0,0,10.16-1.26,4.2,4.2,0,0,0-.89-8.2c-4.37-.37-9.28-1-14.15-1.82-1.47-.24-2.94-.51-4.39-.8-7.57-1.49-14.62-3.49-18.88-5.86l0,0-.31-.18h.05a11.35,11.35,0,0,1-2.48-1.92,18.27,18.27,0,0,1-4.1-6.75h0a15,15,0,0,1-.75-4.7,16.51,16.51,0,0,1,4.82-11.25,26.59,26.59,0,0,1,4.18-3.63c6.58-4.67,16.24-7.62,27-7.62h27v18h-27a37.19,37.19,0,0,0-10.16,1.24A4.21,4.21,0,0,0,150.65,54.28Z"/><path class="cls-2" d="M125.35,27"/><path class="cls-2" d="M125.35,27"/><path class="cls-2" d="M125.74,27"/><rect class="cls-3" x="8.35" y="9" width="18" height="90"/><rect class="cls-1" x="53.35" y="27" width="18" height="72"/><path class="cls-3" d="M125.35,63c0,.19,0,.39,0,.58A36,36,0,0,1,89.35,99h-72s-9,0-9,0V81s9,0,9,0H88.88c9.78,0,18.13-7.6,18.46-17.38A18,18,0,0,0,89.35,45h-18a0,0,0,0,1,0,0V27a0,0,0,0,1,0,0h18a36,36,0,0,1,36,36Z"/><path class="cls-1" d="M284.29,18c5.79,0,5.8-9,0-9s-5.8,9,0,9Z"/><path class="cls-1" d="M257.48,31.33c3.86,0,3.87-6,0-6s-3.87,6,0,6Z"/><path class="cls-1" d="M224.39,31.76c3.86,0,3.87-6,0-6s-3.87,6,0,6Z"/><path class="cls-1" d="M240.27,97c3.86,0,3.87-6,0-6s-3.87,6,0,6Z"/><path class="cls-1" d="M207.18,97.46c3.86,0,3.87-6,0-6s-3.87,6,0,6Z"/><polyline class="cls-4" points="257.49 28.33 240.27 94.04 207.18 94.46 224.39 28.75 257.49 28.33 284.29 13.54"/></g></g></svg>