<svg xmlns="http://www.w3.org/2000/svg" viewBox="0 0 181 75.58"><defs><style>.cls-1,.cls-5{fill:none;}.cls-1,.cls-2{stroke:#fbb03b;}.cls-1,.cls-2,.cls-3,.cls-4,.cls-5,.cls-6{stroke-miterlimit:10;}.cls-3{fill:#fbb03b;}.cls-3,.cls-4,.cls-6{stroke:#fff;}.cls-5{stroke:#000;}.cls-6{stroke-width:0.25px;}</style></defs><title>LDS2</title><g id="Layer_2" data-name="Layer 2"><g id="Layer_1-2" data-name="Layer 1"><polyline class="cls-1" points="6.41 3.08 6.41 30.08 12.84 30.08 12.84 3.08"/><line class="cls-2" x1="9.61" y1="30.08" x2="9.5" y2="3.08"/><path class="cls-3" d="M108.5,57.08v5.81A32.13,32.13,0,0,1,83.58,75.08H6c-3.06,0-5.55-9-5.55-6v-6a5.79,5.79,0,0,1,5.55-6Z"/><rect class="cls-4" x="45.5" y="3.08" width="18" height="72"/><path class="cls-4" d="M18.5,75.08h-12a6,6,0,0,1-6-6v-66l9,27,9-27Z"/><path class="cls-3" d="M117.5,39.08c0,.19,0,.39,0,.58a36,36,0,0,1-36,35.42h-18v-18h18a18,18,0,0,0,0-36h-18v-18h18a36,36,0,0,1,36,36Z"/><path class="cls-3" d="M180.5,52.58a16.51,16.51,0,0,1-4.82,11.25,26.59,26.59,0,0,1-4.18,3.63c-6.59,4.67-16.25,7.62-27,7.62h-63a36,36,0,0,0,31.14-17.94.13.13,0,0,1,.11-.06H144.5c9.87,0,17.88-2.75,18-8.86a.13.13,0,0,0-.13-.14A156.57,156.57,0,0,1,135.25,45c-7.45-1.48-14.4-3.46-18.67-5.79a.06.06,0,0,1,0-.11h56l.07,0a12.31,12.31,0,0,1,3,2.23A16.51,16.51,0,0,1,180.5,52.58Z"/><path class="cls-5" d="M117.5,3.08"/><path class="cls-5" d="M117.5,3.08"/><path class="cls-5" d="M117.89,3.08"/><rect class="cls-6" x="0.5" y="7.01" width="18" height="0.98" rx="0.48" ry="0.48"/><path class="cls-4" d="M126.53,30.08a155.78,155.78,0,0,1,27.23,3.1c7.57,1.51,14.61,3.52,18.87,5.9H116.41a15,15,0,0,1-3-2.25,15.84,15.84,0,0,1-4.82-11.25,16.52,16.52,0,0,1,4.82-11.25,26.58,26.58,0,0,1,4.18-3.63c6.59-4.67,16.24-7.62,27-7.62h36v18h-36C134.59,21.08,126.53,23.87,126.53,30.08Z"/></g></g></svg>