<svg xmlns="http://www.w3.org/2000/svg" viewBox="0 0 188.73 90.01"><defs><style>.cls-1{fill:#fff;}.cls-2{fill:none;}.cls-3{fill:#fbb03b;}</style></defs><title>Lds</title><g id="Layer_2" data-name="Layer 2"><g id="Layer_1-2" data-name="Layer 1"><path class="cls-1" d="M142.35,45.1a4.24,4.24,0,0,0,1.38.34c4.37.38,9.28,1,14.15,1.85,1.47.25,2.94.52,4.39.81,7.29,1.46,14.1,3.38,18.39,5.65h.19l0,0a12.19,12.19,0,0,1,3,2.22A18.34,18.34,0,0,1,188,62.73h0a14.73,14.73,0,0,1,.76,4.7,16.5,16.5,0,0,1-4.79,11.26,26.49,26.49,0,0,1-4.17,3.64C173.2,87,163.54,90,152.8,90H81l27-18h44.76a37.15,37.15,0,0,0,10.16-1.26,4.2,4.2,0,0,0-.89-8.2c-4.37-.37-9.28-1-14.15-1.82-1.47-.24-2.94-.51-4.39-.8-7.57-1.49-14.62-3.49-18.88-5.86l0,0-.31-.18h.05A11.35,11.35,0,0,1,121.84,52a18.27,18.27,0,0,1-4.1-6.75h0a15,15,0,0,1-.75-4.7,16.51,16.51,0,0,1,4.82-11.25A26.59,26.59,0,0,1,126,25.62C132.62,21,142.28,18,153,18h27V36H153a37.19,37.19,0,0,0-10.16,1.24A4.21,4.21,0,0,0,142.35,45.1Z"/><path class="cls-2" d="M117,18"/><path class="cls-2" d="M117,18"/><path class="cls-2" d="M117.39,18"/><rect class="cls-3" width="18" height="90"/><rect class="cls-1" x="45" y="18" width="18" height="72"/><path class="cls-3" d="M117,54c0,.19,0,.39,0,.58A36,36,0,0,1,81,90H9s-9,0-9,0V72s9,0,9,0H80.53C90.31,72,98.66,64.4,99,54.62A18,18,0,0,0,81,36H63a0,0,0,0,1,0,0V18a0,0,0,0,1,0,0H81a36,36,0,0,1,36,36Z"/></g></g></svg>