<svg xmlns="http://www.w3.org/2000/svg" viewBox="0 0 207 108"><defs><style>.cls-1{fill:#fff;}.cls-2{fill:none;}.cls-3{fill:#fbb03b;}</style></defs><title>LDSBlack</title><g id="Layer_2" data-name="Layer 2"><g id="Layer_1-2" data-name="Layer 1"><rect width="207" height="108"/><path class="cls-1" d="M151.35,54.1a4.24,4.24,0,0,0,1.38.34c4.37.38,9.28,1,14.15,1.85,1.47.25,2.94.52,4.39.81,7.29,1.46,14.1,3.38,18.39,5.65h.19l0,0a12.19,12.19,0,0,1,3,2.22A18.34,18.34,0,0,1,197,71.73h0a14.73,14.73,0,0,1,.76,4.7,16.5,16.5,0,0,1-4.79,11.26,26.49,26.49,0,0,1-4.17,3.64C182.2,96,172.54,99,161.8,99H90l27-18h44.76a37.15,37.15,0,0,0,10.16-1.26,4.2,4.2,0,0,0-.89-8.2c-4.37-.37-9.28-1-14.15-1.82-1.47-.24-2.94-.51-4.39-.8-7.57-1.49-14.62-3.49-18.88-5.86l0,0-.31-.18h.05A11.35,11.35,0,0,1,130.84,61a18.27,18.27,0,0,1-4.1-6.75h0a15,15,0,0,1-.75-4.7,16.51,16.51,0,0,1,4.82-11.25A26.59,26.59,0,0,1,135,34.62C141.62,30,151.28,27,162,27h27V45H162a37.19,37.19,0,0,0-10.16,1.24A4.21,4.21,0,0,0,151.35,54.1Z"/><path class="cls-2" d="M126,27"/><path class="cls-2" d="M126,27"/><path class="cls-2" d="M126.39,27"/><rect class="cls-3" x="9" y="9" width="18" height="90"/><rect class="cls-1" x="54" y="27" width="18" height="72"/><path class="cls-3" d="M126,63c0,.19,0,.39,0,.58A36,36,0,0,1,90,99H18s-9,0-9,0V81s9,0,9,0H89.53c9.78,0,18.13-7.6,18.46-17.38A18,18,0,0,0,90,45H72a0,0,0,0,1,0,0V27a0,0,0,0,1,0,0H90a36,36,0,0,1,36,36Z"/></g></g></svg>