<svg xmlns="http://www.w3.org/2000/svg" viewBox="0 0 89.87 45.19"><defs><style>.cls-1,.cls-2{isolation:isolate;}.cls-2{font-size:42px;stroke:#000;font-family:September-Medium, September;}.cls-2,.cls-4{fill:#fff;}.cls-2,.cls-3,.cls-4{stroke-miterlimit:10;stroke-width:0.5px;}.cls-3{fill:#fbb03b;}.cls-3,.cls-4{stroke:#010101;}</style></defs><title>logo-maybe</title><g id="Layer_2" data-name="Layer 2"><g id="Layer_1-2" data-name="Layer 1"><g class="cls-1"><text class="cls-2" transform="translate(0.25 34.14)"><tspan xml:space="preserve">L  RA</tspan></text></g><polygon class="cls-3" points="17.94 11.54 15.44 8.04 15.44 21.94 17.94 25.44 17.94 11.54"/><rect class="cls-3" x="17.94" y="12.34" width="19.6" height="1.4"/><rect class="cls-4" x="22.84" y="13.84" width="2.5" height="11.6"/><rect class="cls-4" x="25.24" y="13.84" width="2.5" height="11.6"/><rect class="cls-4" x="27.74" y="13.84" width="2.5" height="11.6"/><rect class="cls-4" x="30.14" y="13.84" width="2.5" height="11.6"/><polygon class="cls-3" points="37.44 11.54 39.94 8.04 39.94 21.94 37.44 25.44 37.44 11.54"/><polyline class="cls-4" points="30.14 34.14 30.14 29.84 35.04 34.14 20.34 34.14 25.24 29.84 25.24 34.14"/><path class="cls-3" d="M30.14,25.44h-7.4L17.94,21v2.9l7.3,5.8v4.4h4.9v-4.3L37.42,24V21l-4.9,4.3Z"/></g></g></svg>