<svg id="Layer_1" data-name="Layer 1" xmlns="http://www.w3.org/2000/svg" viewBox="0 0 197.48 196.35"><defs><style>.cls-1{fill:#fbb03b;}.cls-1,.cls-2{stroke:#010101;stroke-miterlimit:10;}.cls-2{fill:#fff;}</style></defs><title>Lyra Y</title><polygon class="cls-1" points="20.15 27.4 0.5 1.49 0.5 105.15 20.15 131.06 20.15 27.4"/><rect class="cls-1" x="20.15" y="33.88" width="157.19" height="10.8"/><rect class="cls-2" x="59.44" y="44.68" width="19.65" height="86.38"/><rect class="cls-2" x="79.09" y="44.68" width="19.65" height="86.38"/><rect class="cls-2" x="98.74" y="44.68" width="19.65" height="86.38"/><rect class="cls-2" x="118.39" y="44.68" width="19.65" height="86.38"/><polygon class="cls-1" points="177.34 27.4 196.98 1.49 196.98 105.15 177.34 131.06 177.34 27.4"/><polyline class="cls-2" points="118.39 195.85 118.39 163.46 157.69 195.85 39.8 195.85 79.09 163.46 79.09 195.85"/><path class="cls-1" d="M274.72,377.33H215.77l-39.3-32.39v21.6l58.94,43.19v32.39h39.3V409.73l58.94-43.19v-21.6l-39.3,32.39Z" transform="translate(-156.33 -246.27)"/></svg>