<svg xmlns="http://www.w3.org/2000/svg" viewBox="0 0 85.38 45.21"><defs><style>.cls-1,.cls-2{isolation:isolate;font-size:36.26px;font-family:Skia-Regular, Skia;}.cls-1,.cls-3{fill:#fbb03b;}.cls-2{fill:none;stroke:#000;}.cls-2,.cls-3,.cls-4{stroke-miterlimit:10;}.cls-3,.cls-4{stroke:#010101;}.cls-4{fill:#fff;}</style></defs><title>lyraPartial</title><g id="Layer_2" data-name="Layer 2"><g id="Layer_1-2" data-name="Layer 1"><text class="cls-1" transform="translate(0.5 30.49) scale(0.99 1)"><tspan xml:space="preserve">L  RA</tspan></text><text class="cls-2" transform="translate(0.5 30.49) scale(0.99 1)"><tspan xml:space="preserve">L  RA</tspan></text><polygon class="cls-3" points="17.8 8.56 15.3 5.04 15.3 19.04 17.8 22.56 17.8 8.56"/><rect class="cls-3" x="17.8" y="9.37" width="19.6" height="1.41"/><rect class="cls-4" x="22.7" y="10.88" width="2.5" height="11.68"/><rect class="cls-4" x="25.1" y="10.88" width="2.5" height="11.68"/><rect class="cls-4" x="27.6" y="10.88" width="2.5" height="11.68"/><rect class="cls-4" x="30" y="10.88" width="2.5" height="11.68"/><polygon class="cls-3" points="37.3 8.56 39.8 5.04 39.8 19.04 37.3 22.56 37.3 8.56"/><polyline class="cls-4" points="30 31.33 30 27 34.9 31.33 20.2 31.33 25.1 27 25.1 31.33"/><path class="cls-3" d="M30,22.56H22.6l-4.8-4.43v2.92l7.3,5.84v4.43H30V27l7.3-5.84v-3l-4.9,4.33Z"/></g></g></svg>