<?xml version="1.0" encoding="utf-8"?>
<!-- Generator: Adobe Illustrator 20.1.0, SVG Export Plug-In . SVG Version: 6.00 Build 0)  -->
<svg version="1.1" id="Layer_1" xmlns="http://www.w3.org/2000/svg" xmlns:xlink="http://www.w3.org/1999/xlink" x="0px" y="0px"
	 viewBox="0 0 183.4 96" style="enable-background:new 0 0 183.4 96;" xml:space="preserve">
<style type="text/css">
	.st0{enable-background:new    ;}
	.st1{stroke:#FFFFFF;stroke-width:0.5;stroke-miterlimit:10;}
	.st2{font-family:'September-Medium';}
	.st3{font-size:42px;}
	.st4{fill:#FBB03B;stroke:#000000;stroke-width:0.5;stroke-miterlimit:10;}
	.st5{fill:#FBB03B;stroke:#010101;stroke-width:0.5;stroke-miterlimit:10;}
	.st6{fill:#FFFFFF;stroke:#010101;stroke-width:0.5;stroke-miterlimit:10;}
</style>
<text transform="matrix(1 0 0 1 25.7157 75.4643)" class="st0"><tspan x="0" y="0" class="st1 st2 st3">L</tspan><tspan x="17.6" y="0" class="st4 st2 st3">Y</tspan><tspan x="42.1" y="0" class="st1 st2 st3">RA</tspan></text>
<polygon class="st5" points="42.2,9.7 39.4,5.5 39.4,22.2 42.2,26.4 "/>
<rect x="42.2" y="10.7" class="st5" width="21.2" height="1.7"/>
<rect x="47.5" y="12.5" class="st6" width="2.7" height="13.9"/>
<rect x="50.1" y="12.5" class="st6" width="2.7" height="13.9"/>
<rect x="52.8" y="12.5" class="st6" width="2.7" height="13.9"/>
<rect x="55.4" y="12.5" class="st6" width="2.7" height="13.9"/>
<polygon class="st5" points="63.3,9.7 66,5.5 66,22.2 63.3,26.4 "/>
<polyline class="st6" points="55.4,36.8 55.4,31.6 60.7,36.8 44.8,36.8 50.1,31.6 50.1,36.8 "/>
<path class="st5" d="M55.4,26.4h-8l-5.2-5.3v3.5l7.9,7v5.3h5.3v-5.2l7.9-7v-3.6l-5.3,5.2L55.4,26.4z"/>
</svg>
